<svg width="1300" height="388" viewBox="0 0 1300 388" fill="none" xmlns="http://www.w3.org/2000/svg">
  <style>
    .connector__base,
    .connector__halo,
    .connector__active {
      fill: none;
      stroke-linecap: round;
      stroke-linejoin: round;
      vector-effect: non-scaling-stroke;
    }

    .connector__base {
      stroke: var(--base, #E4E6ED);
      stroke-width: 2;
      opacity: 0.92;
    }

    .connector__halo,
    .connector__active {
      stroke: var(--accent, #D1F701);
      stroke-dasharray: 100;
      stroke-dashoffset: 100;
      animation-delay: var(--delay, 0s);
      animation-iteration-count: infinite;
      animation-timing-function: ease-in-out;
    }

    .connector__halo {
      stroke-width: 10;
      opacity: 0;
      animation-name: branchHalo;
      animation-duration: 6.4s;
    }

    .connector__active {
      stroke-width: 2.5;
      opacity: 0;
      animation-name: branchLine;
      animation-duration: 6.4s;
    }

    .node {
      transform-box: fill-box;
      transform-origin: center;
      animation: nodePulse 6.4s ease-in-out infinite;
      animation-delay: var(--node-delay, 0s);
    }

    @keyframes branchLine {
      0%, 8% {
        stroke-dashoffset: 100;
        opacity: 0;
      }
      12% {
        opacity: 1;
      }
      28% {
        stroke-dashoffset: 0;
        opacity: 1;
      }
      40% {
        stroke-dashoffset: 0;
        opacity: 0.18;
      }
      100% {
        stroke-dashoffset: 0;
        opacity: 0.18;
      }
    }

    @keyframes branchHalo {
      0%, 8% {
        stroke-dashoffset: 100;
        opacity: 0;
      }
      14% {
        opacity: 0.18;
      }
      26% {
        stroke-dashoffset: 0;
        opacity: 0.2;
      }
      38% {
        stroke-dashoffset: 0;
        opacity: 0;
      }
      100% {
        stroke-dashoffset: 0;
        opacity: 0;
      }
    }

    @keyframes nodePulse {
      0%, 12%, 100% {
        opacity: 1;
        transform: scale(1);
      }
      18% {
        opacity: 1;
        transform: scale(1.035);
      }
      24% {
        opacity: 1;
        transform: scale(1);
      }
    }

    @media (prefers-reduced-motion: reduce) {
      .connector__halo,
      .connector__active,
      .node {
        animation: none;
      }

      .connector__active {
        opacity: 0.45;
        stroke-dashoffset: 0;
      }
    }
  </style>
<g class="connector" style="--accent:#D1F701; --base:#E4E6ED; --delay:0s;">
  <path
    class="connector__base"
    d="M696 149.425L720.799 136.736C722.287 135.974 723.124 134.941 723.124 133.863V93.5613C723.124 92.484 723.96 91.4508 725.449 90.689L747.922 79.1898C749.411 78.428 751.43 78 753.536 78H1300"
  />
  <path
    class="connector__halo"
    pathLength="100"
    d="M696 149.425L720.799 136.736C722.287 135.974 723.124 134.941 723.124 133.863V93.5613C723.124 92.484 723.96 91.4508 725.449 90.689L747.922 79.1898C749.411 78.428 751.43 78 753.536 78H1300"
  />
  <path
    class="connector__active"
    pathLength="100"
    d="M696 149.425L720.799 136.736C722.287 135.974 723.124 134.941 723.124 133.863V93.5613C723.124 92.484 723.96 91.4508 725.449 90.689L747.922 79.1898C749.411 78.428 751.43 78 753.536 78H1300"
  />
</g>

<g class="connector" style="--accent:#A692F1; --base:#E4E6ED; --delay:1.6s;">
  <path
    class="connector__base"
    d="M696 212.687L720.799 225.376C722.287 226.137 723.124 227.171 723.124 228.248V268.55C723.124 269.627 723.96 270.661 725.449 271.422L747.922 282.922C749.411 283.683 751.43 284.111 753.536 284.111H1300"
  />
  <path
    class="connector__halo"
    pathLength="100"
    d="M696 212.687L720.799 225.376C722.287 226.137 723.124 227.171 723.124 228.248V268.55C723.124 269.627 723.96 270.661 725.449 271.422L747.922 282.922C749.411 283.683 751.43 284.111 753.536 284.111H1300"
  />
  <path
    class="connector__active"
    pathLength="100"
    d="M696 212.687L720.799 225.376C722.287 226.137 723.124 227.171 723.124 228.248V268.55C723.124 269.627 723.96 270.661 725.449 271.422L747.922 282.922C749.411 283.683 751.43 284.111 753.536 284.111H1300"
  />
</g>

<g class="connector" style="--accent:#D1F701; --base:#E4E6ED; --delay:0.8s;">
  <path
    class="connector__base"
    d="M604 150.105L579.201 137.416C577.713 136.654 576.876 135.621 576.876 134.544V94.2415C576.876 93.1642 576.04 92.131 574.551 91.3691L552.078 79.8699C550.589 79.1081 548.57 78.6802 546.464 78.6802H2.00272e-05"
  />
  <path
    class="connector__halo"
    pathLength="100"
    d="M604 150.105L579.201 137.416C577.713 136.654 576.876 135.621 576.876 134.544V94.2415C576.876 93.1642 576.04 92.131 574.551 91.3691L552.078 79.8699C550.589 79.1081 548.57 78.6802 546.464 78.6802H2.00272e-05"
  />
  <path
    class="connector__active"
    pathLength="100"
    d="M604 150.105L579.201 137.416C577.713 136.654 576.876 135.621 576.876 134.544V94.2415C576.876 93.1642 576.04 92.131 574.551 91.3691L552.078 79.8699C550.589 79.1081 548.57 78.6802 546.464 78.6802H2.00272e-05"
  />
</g>

<g class="connector" style="--accent:#A692F1; --base:#E4E6ED; --delay:2.4s;">
  <path
    class="connector__base"
    d="M604 212.687L579.201 225.376C577.713 226.137 576.876 227.171 576.876 228.248V268.55C576.876 269.627 576.04 270.661 574.551 271.422L552.078 282.922C550.589 283.683 548.57 284.111 546.464 284.111H2.00272e-05"
  />
  <path
    class="connector__halo"
    pathLength="100"
    d="M604 212.687L579.201 225.376C577.713 226.137 576.876 227.171 576.876 228.248V268.55C576.876 269.627 576.04 270.661 574.551 271.422L552.078 282.922C550.589 283.683 548.57 284.111 546.464 284.111H2.00272e-05"
  />
  <path
    class="connector__active"
    pathLength="100"
    d="M604 212.687L579.201 225.376C577.713 226.137 576.876 227.171 576.876 228.248V268.55C576.876 269.627 576.04 270.661 574.551 271.422L552.078 282.922C550.589 283.683 548.57 284.111 546.464 284.111H2.00272e-05"
  />
</g>
<g filter="url(#filter0_dd_1_4066)">
<g clip-path="url(#clip0_1_4066)">
<rect x="588" y="116" width="124" height="124" rx="62" fill="white"/>
<rect x="588.5" y="116.5" width="123" height="123" rx="61.5" stroke="#E9EBF1"/>
<g clip-path="url(#clip1_1_4066)">
<g clip-path="url(#clip2_1_4066)">
<path d="M662.177 154C668.706 154 674 159.294 674 165.824V168.87C668.834 171.68 664.364 175.642 660.833 180.605C660.171 181.549 659.391 182.747 659.067 183.321C659.142 183.416 659.217 183.511 659.292 183.606C662.716 187.014 666.281 190.263 669.936 193.386C670.835 194.154 671.74 194.914 672.651 195.667C672.116 196.684 671.438 197.615 670.642 198.43C668.491 196.4 666.409 194.334 664.419 192.255H664.42C662.067 189.797 659.844 187.32 657.788 184.865C656.327 183.116 655.093 181.758 655.03 181.799C654.866 181.984 656.985 185.956 658.467 188.219C661.097 192.206 664.282 196.368 667.859 200.547C667.041 200.996 666.164 201.351 665.244 201.598C662.834 198.569 660.528 195.452 658.333 192.245C657.723 191.331 657.127 190.407 656.553 189.482L656.548 189.475C656.408 189.247 656.272 189.02 656.139 188.794C655.998 189.123 655.816 189.581 655.627 190.069C654.115 194.075 653.236 198.055 652.99 202H637.824C631.294 202 626 196.706 626 190.176V165.824C626 159.294 631.294 154 637.824 154H662.177ZM643.136 175.809C642.684 175.46 642.293 175.213 642.251 175.254C642.128 175.377 643.013 177.949 643.651 179.369C644.268 180.769 644.33 180.81 647.355 182.415C650.544 184.082 650.709 184.102 649.433 182.559C648.137 181.016 647.499 179.781 647.622 179.122C647.704 178.69 647.478 178.505 645.832 177.538C644.803 176.92 643.589 176.139 643.136 175.809ZM637.807 163.009C637.333 162.906 636.675 162.845 636.346 162.865C635.728 162.906 635.728 162.927 635.79 163.935C635.975 167.084 638.239 170.973 641.428 173.627C643.239 175.15 646.099 177.023 647.684 177.764L648.836 178.299L649.989 177.146L651.141 175.994L650.668 175.006C649.515 172.578 646.737 168.771 644.844 167.001C642.622 164.923 640.05 163.462 637.807 163.009ZM650.174 170.026C649.124 169.82 648.26 169.676 648.219 169.697C648.178 169.738 648.651 170.479 649.269 171.364C649.865 172.269 650.627 173.463 650.956 174.059L651.553 175.13H652.726C654.043 175.109 654.804 175.438 656.018 176.529C656.45 176.92 656.821 177.187 656.821 177.105C656.821 176.837 655.421 174.368 654.228 172.516C652.993 170.623 652.952 170.602 650.174 170.026Z" fill="url(#paint0_linear_1_4066)"/>
</g>
</g>
</g>
</g>
<g clip-path="url(#clip3_1_4066)">
<rect x="874" y="26" width="88" height="88" rx="44" fill="white"/>
<rect x="874.5" y="26.5" width="87" height="87" rx="43.5" stroke="#EBDFEA"/>
<path d="M900 66.1249V79.2499C900.002 81.1831 900.771 83.0364 902.138 84.4033C903.505 85.7703 905.359 86.5393 907.292 86.5416H927.708C929.641 86.5393 931.495 85.7703 932.862 84.4033C934.229 83.0364 934.998 81.1831 935 79.2499V66.1249H900ZM920.417 80.7083H908.75C908.363 80.7083 907.992 80.5546 907.719 80.2811C907.445 80.0076 907.292 79.6367 907.292 79.2499C907.292 78.8631 907.445 78.4922 907.719 78.2187C907.992 77.9452 908.363 77.7916 908.75 77.7916H920.417C920.803 77.7916 921.174 77.9452 921.448 78.2187C921.721 78.4922 921.875 78.8631 921.875 79.2499C921.875 79.6367 921.721 80.0076 921.448 80.2811C921.174 80.5546 920.803 80.7083 920.417 80.7083ZM926.25 74.8749H908.75C908.363 74.8749 907.992 74.7213 907.719 74.4478C907.445 74.1743 907.292 73.8034 907.292 73.4166C907.292 73.0298 907.445 72.6589 907.719 72.3854C907.992 72.1119 908.363 71.9583 908.75 71.9583H926.25C926.637 71.9583 927.008 72.1119 927.281 72.3854C927.555 72.6589 927.708 73.0298 927.708 73.4166C927.708 73.8034 927.555 74.1743 927.281 74.4478C927.008 74.7213 926.637 74.8749 926.25 74.8749ZM935 63.2083V61.7499C934.998 59.8168 934.229 57.9634 932.862 56.5965C931.495 55.2295 929.641 54.4606 927.708 54.4583H907.292C905.359 54.4606 903.505 55.2295 902.138 56.5965C900.771 57.9634 900.002 59.8168 900 61.7499V63.2083H935ZM914.583 57.3749C914.872 57.3749 915.154 57.4604 915.394 57.6207C915.633 57.7809 915.82 58.0087 915.931 58.2752C916.041 58.5416 916.07 58.8349 916.014 59.1178C915.957 59.4006 915.818 59.6605 915.615 59.8644C915.411 60.0684 915.151 60.2073 914.868 60.2636C914.585 60.3198 914.292 60.291 914.025 60.1806C913.759 60.0702 913.531 59.8833 913.371 59.6435C913.211 59.4036 913.125 59.1217 913.125 58.8333C913.125 58.4465 913.279 58.0755 913.552 57.8021C913.826 57.5286 914.197 57.3749 914.583 57.3749ZM910.208 57.3749C910.497 57.3749 910.779 57.4604 911.019 57.6207C911.258 57.7809 911.445 58.0087 911.556 58.2752C911.666 58.5416 911.695 58.8349 911.639 59.1178C911.582 59.4006 911.443 59.6605 911.24 59.8644C911.036 60.0684 910.776 60.2073 910.493 60.2636C910.21 60.3198 909.917 60.291 909.65 60.1806C909.384 60.0702 909.156 59.8833 908.996 59.6435C908.836 59.4036 908.75 59.1217 908.75 58.8333C908.75 58.4465 908.904 58.0755 909.177 57.8021C909.451 57.5286 909.822 57.3749 910.208 57.3749ZM905.833 57.3749C906.122 57.3749 906.404 57.4604 906.644 57.6207C906.883 57.7809 907.07 58.0087 907.181 58.2752C907.291 58.5416 907.32 58.8349 907.264 59.1178C907.207 59.4006 907.068 59.6605 906.865 59.8644C906.661 60.0684 906.401 60.2073 906.118 60.2636C905.835 60.3198 905.542 60.291 905.275 60.1806C905.009 60.0702 904.781 59.8833 904.621 59.6435C904.461 59.4036 904.375 59.1217 904.375 58.8333C904.375 58.4465 904.529 58.0755 904.802 57.8021C905.076 57.5286 905.447 57.3749 905.833 57.3749Z" fill="#A692F1"/>
<path d="M900 66.1249V79.2499C900.002 81.1831 900.771 83.0364 902.138 84.4033C903.505 85.7703 905.359 86.5393 907.292 86.5416H927.708C929.641 86.5393 931.495 85.7703 932.862 84.4033C934.229 83.0364 934.998 81.1831 935 79.2499V66.1249H900ZM920.417 80.7083H908.75C908.363 80.7083 907.992 80.5546 907.719 80.2811C907.445 80.0076 907.292 79.6367 907.292 79.2499C907.292 78.8631 907.445 78.4922 907.719 78.2187C907.992 77.9452 908.363 77.7916 908.75 77.7916H920.417C920.803 77.7916 921.174 77.9452 921.448 78.2187C921.721 78.4922 921.875 78.8631 921.875 79.2499C921.875 79.6367 921.721 80.0076 921.448 80.2811C921.174 80.5546 920.803 80.7083 920.417 80.7083ZM926.25 74.8749H908.75C908.363 74.8749 907.992 74.7213 907.719 74.4478C907.445 74.1743 907.292 73.8034 907.292 73.4166C907.292 73.0298 907.445 72.6589 907.719 72.3854C907.992 72.1119 908.363 71.9583 908.75 71.9583H926.25C926.637 71.9583 927.008 72.1119 927.281 72.3854C927.555 72.6589 927.708 73.0298 927.708 73.4166C927.708 73.8034 927.555 74.1743 927.281 74.4478C927.008 74.7213 926.637 74.8749 926.25 74.8749ZM935 63.2083V61.7499C934.998 59.8168 934.229 57.9634 932.862 56.5965C931.495 55.2295 929.641 54.4606 927.708 54.4583H907.292C905.359 54.4606 903.505 55.2295 902.138 56.5965C900.771 57.9634 900.002 59.8168 900 61.7499V63.2083H935ZM914.583 57.3749C914.872 57.3749 915.154 57.4604 915.394 57.6207C915.633 57.7809 915.82 58.0087 915.931 58.2752C916.041 58.5416 916.07 58.8349 916.014 59.1178C915.957 59.4006 915.818 59.6605 915.615 59.8644C915.411 60.0684 915.151 60.2073 914.868 60.2636C914.585 60.3198 914.292 60.291 914.025 60.1806C913.759 60.0702 913.531 59.8833 913.371 59.6435C913.211 59.4036 913.125 59.1217 913.125 58.8333C913.125 58.4465 913.279 58.0755 913.552 57.8021C913.826 57.5286 914.197 57.3749 914.583 57.3749ZM910.208 57.3749C910.497 57.3749 910.779 57.4604 911.019 57.6207C911.258 57.7809 911.445 58.0087 911.556 58.2752C911.666 58.5416 911.695 58.8349 911.639 59.1178C911.582 59.4006 911.443 59.6605 911.24 59.8644C911.036 60.0684 910.776 60.2073 910.493 60.2636C910.21 60.3198 909.917 60.291 909.65 60.1806C909.384 60.0702 909.156 59.8833 908.996 59.6435C908.836 59.4036 908.75 59.1217 908.75 58.8333C908.75 58.4465 908.904 58.0755 909.177 57.8021C909.451 57.5286 909.822 57.3749 910.208 57.3749ZM905.833 57.3749C906.122 57.3749 906.404 57.4604 906.644 57.6207C906.883 57.7809 907.07 58.0087 907.181 58.2752C907.291 58.5416 907.32 58.8349 907.264 59.1178C907.207 59.4006 907.068 59.6605 906.865 59.8644C906.661 60.0684 906.401 60.2073 906.118 60.2636C905.835 60.3198 905.542 60.291 905.275 60.1806C905.009 60.0702 904.781 59.8833 904.621 59.6435C904.461 59.4036 904.375 59.1217 904.375 58.8333C904.375 58.4465 904.529 58.0755 904.802 57.8021C905.076 57.5286 905.447 57.3749 905.833 57.3749Z" fill="url(#paint1_linear_1_4066)"/>
</g>
<g clip-path="url(#clip4_1_4066)">
<rect x="874" y="243" width="88" height="88" rx="44" fill="white"/>
<rect x="874.5" y="243.5" width="87" height="87" rx="43.5" stroke="#EBDFEA"/>
<path d="M937.234 294.42H895V298.211H941V294.42H937.234ZM895 270V293.886H897.358V272.115H938.644V293.886H941V270H895ZM909.232 305H926.779V304.381H909.232V305ZM919.792 298.743V300.943H924.806L926.769 303.849H909.232L911.197 300.943H916.208V298.743H919.792Z" fill="#A692F1"/>
<path d="M937.234 294.42H895V298.211H941V294.42H937.234ZM895 270V293.886H897.358V272.115H938.644V293.886H941V270H895ZM909.232 305H926.779V304.381H909.232V305ZM919.792 298.743V300.943H924.806L926.769 303.849H909.232L911.197 300.943H916.208V298.743H919.792Z" fill="url(#paint2_linear_1_4066)"/>
</g>
<g clip-path="url(#clip5_1_4066)">
<rect y="243" width="88" height="88" rx="44" fill="white"/>
<rect x="0.5" y="243.5" width="87" height="87" rx="43.5" stroke="#EBDFEA"/>
<g clip-path="url(#clip6_1_4066)">
<path d="M39.3659 280.316L39.4599 282.434L37.9569 285.197L35.6084 289.711L35.1387 293.487L36.8296 298.829L40.6811 300.947H46.5053L51.9538 296.895L54.3962 290.54L48.7599 283.816L47.1629 280.04L39.3659 280.316Z" fill="#ECEFF1"/>
<path d="M52.7066 285.566C51.2036 283.447 49.9824 282.158 49.3248 279.487C48.6673 276.816 49.5127 277.553 48.9491 275.25C48.6673 274.053 48.1976 273.224 47.7279 272.579C47.1642 271.934 46.5066 271.566 46.1309 271.474C45.2854 271.013 43.3127 270.276 40.8703 271.566C38.3339 272.855 38.6157 275.618 39.0854 281.237C39.0854 281.605 38.9915 282.066 38.8036 282.434C38.4279 283.263 37.7703 284 37.2066 284.645C36.5491 285.566 35.8915 286.487 35.4218 287.5C34.2945 289.618 33.2612 292.289 33.543 293.303C34.0127 293.211 39.9309 302.053 39.9309 302.237C40.3067 302.145 41.9036 302.145 43.3127 302.145C45.2854 302.053 46.4127 301.961 48.0097 302.329C48.0097 302.053 47.9157 301.776 47.9157 301.5C47.9157 300.947 48.0097 300.487 48.1036 299.842C48.1976 299.382 48.2915 298.921 48.3854 298.368C47.446 299.197 45.7551 300.118 44.1582 300.395C42.7491 300.671 40.4006 300.211 39.2733 298.829C39.3673 298.829 39.5551 298.829 39.6491 298.737C39.9309 298.645 40.2127 298.553 40.3066 298.368C40.5885 297.908 40.4006 297.447 40.2127 297.171C40.0248 296.895 38.6157 295.882 37.9582 295.329C37.3006 294.776 36.9248 294.5 36.5491 294.132C36.5491 294.132 35.9854 293.579 35.7976 293.395C35.6097 293.211 35.5157 293.026 35.4218 292.934C35.2339 292.474 35.14 291.921 35.2339 291.184C35.3279 290.171 35.7036 289.342 36.1733 288.421C36.3612 288.053 36.8309 287.316 36.8309 287.316C36.8309 287.316 35.2339 291.184 36.0794 292.382C36.0794 292.382 36.1733 291.184 36.5491 289.987C36.8309 289.158 37.3006 287.961 37.8642 287.316C38.4279 286.671 39.837 284.276 39.9309 282.803C39.9309 282.158 40.0248 281.513 40.0248 281.053C39.6491 280.684 46.2248 279.763 46.6006 280.776C46.6945 281.145 48.0097 284.461 48.7612 286.211C49.137 287.039 49.6066 287.776 49.8885 288.697C50.1703 289.711 50.3582 291.092 50.3582 292.474C50.3582 292.75 50.3582 293.211 50.2642 293.671C50.4521 293.671 54.1157 289.803 49.7945 286.579C49.7945 286.579 52.4248 287.776 52.5188 290.171C52.6127 292.105 51.7673 293.671 51.5794 293.947C51.6733 293.947 53.5521 294.776 53.646 294.776C54.0218 294.776 54.7733 294.5 54.7733 294.5C54.8673 294.224 55.1491 293.487 55.1491 293.211C55.8067 291.092 54.2097 287.684 52.7066 285.566Z" fill="#A692F1"/>
<path d="M52.7066 285.566C51.2036 283.447 49.9824 282.158 49.3248 279.487C48.6673 276.816 49.5127 277.553 48.9491 275.25C48.6673 274.053 48.1976 273.224 47.7279 272.579C47.1642 271.934 46.5066 271.566 46.1309 271.474C45.2854 271.013 43.3127 270.276 40.8703 271.566C38.3339 272.855 38.6157 275.618 39.0854 281.237C39.0854 281.605 38.9915 282.066 38.8036 282.434C38.4279 283.263 37.7703 284 37.2066 284.645C36.5491 285.566 35.8915 286.487 35.4218 287.5C34.2945 289.618 33.2612 292.289 33.543 293.303C34.0127 293.211 39.9309 302.053 39.9309 302.237C40.3067 302.145 41.9036 302.145 43.3127 302.145C45.2854 302.053 46.4127 301.961 48.0097 302.329C48.0097 302.053 47.9157 301.776 47.9157 301.5C47.9157 300.947 48.0097 300.487 48.1036 299.842C48.1976 299.382 48.2915 298.921 48.3854 298.368C47.446 299.197 45.7551 300.118 44.1582 300.395C42.7491 300.671 40.4006 300.211 39.2733 298.829C39.3673 298.829 39.5551 298.829 39.6491 298.737C39.9309 298.645 40.2127 298.553 40.3066 298.368C40.5885 297.908 40.4006 297.447 40.2127 297.171C40.0248 296.895 38.6157 295.882 37.9582 295.329C37.3006 294.776 36.9248 294.5 36.5491 294.132C36.5491 294.132 35.9854 293.579 35.7976 293.395C35.6097 293.211 35.5157 293.026 35.4218 292.934C35.2339 292.474 35.14 291.921 35.2339 291.184C35.3279 290.171 35.7036 289.342 36.1733 288.421C36.3612 288.053 36.8309 287.316 36.8309 287.316C36.8309 287.316 35.2339 291.184 36.0794 292.382C36.0794 292.382 36.1733 291.184 36.5491 289.987C36.8309 289.158 37.3006 287.961 37.8642 287.316C38.4279 286.671 39.837 284.276 39.9309 282.803C39.9309 282.158 40.0248 281.513 40.0248 281.053C39.6491 280.684 46.2248 279.763 46.6006 280.776C46.6945 281.145 48.0097 284.461 48.7612 286.211C49.137 287.039 49.6066 287.776 49.8885 288.697C50.1703 289.711 50.3582 291.092 50.3582 292.474C50.3582 292.75 50.3582 293.211 50.2642 293.671C50.4521 293.671 54.1157 289.803 49.7945 286.579C49.7945 286.579 52.4248 287.776 52.5188 290.171C52.6127 292.105 51.7673 293.671 51.5794 293.947C51.6733 293.947 53.5521 294.776 53.646 294.776C54.0218 294.776 54.7733 294.5 54.7733 294.5C54.8673 294.224 55.1491 293.487 55.1491 293.211C55.8067 291.092 54.2097 287.684 52.7066 285.566Z" fill="url(#paint3_linear_1_4066)"/>
<path d="M40.7758 279.487C41.4503 279.487 41.997 278.662 41.997 277.645C41.997 276.627 41.4503 275.802 40.7758 275.802C40.1014 275.802 39.5546 276.627 39.5546 277.645C39.5546 278.662 40.1014 279.487 40.7758 279.487Z" fill="#ECEFF1"/>
<path d="M45.0031 279.671C45.885 279.671 46.6 278.722 46.6 277.553C46.6 276.383 45.885 275.434 45.0031 275.434C44.1211 275.434 43.4061 276.383 43.4061 277.553C43.4061 278.722 44.1211 279.671 45.0031 279.671Z" fill="#ECEFF1"/>
<path d="M41.4564 277.771C41.3783 277.165 41.0229 276.71 40.6626 276.755C40.3023 276.8 40.0735 277.327 40.1516 277.932C40.2297 278.538 40.585 278.993 40.9453 278.948C41.3056 278.903 41.5344 278.376 41.4564 277.771Z" fill="#212121"/>
<path d="M44.9081 279.118C45.427 279.118 45.8475 278.582 45.8475 277.921C45.8475 277.26 45.427 276.724 44.9081 276.724C44.3893 276.724 43.9688 277.26 43.9688 277.921C43.9688 278.582 44.3893 279.118 44.9081 279.118Z" fill="#212121"/>
<path d="M57.4022 298.184C57.0264 298 56.3689 297.724 55.8052 296.895C55.5234 296.434 55.6174 295.145 55.1477 294.592C54.8658 294.224 54.4901 294.408 54.3961 294.408C53.5507 294.592 51.578 295.882 50.2628 294.408C50.0749 294.224 49.7931 293.948 49.3234 293.948C48.8537 293.948 48.6658 294.132 48.478 294.5C48.2901 294.869 48.2901 295.145 48.2901 296.066C48.2901 296.803 48.2901 297.632 48.1961 298.276C48.0083 299.842 47.7264 300.763 47.7264 301.684C47.7264 302.698 48.0083 303.342 48.384 303.619C48.6658 303.895 49.1355 304.079 50.1689 304.079C51.2022 304.079 51.8598 303.711 52.5173 303.066C52.987 302.605 53.3628 302.421 54.678 301.5C55.7113 300.855 57.3083 300.026 57.5901 299.75C57.778 299.566 58.0598 299.474 58.0598 298.921C58.0598 298.461 57.684 298.276 57.4022 298.184Z" fill="#A692F1"/>
<path d="M57.4022 298.184C57.0264 298 56.3689 297.724 55.8052 296.895C55.5234 296.434 55.6174 295.145 55.1477 294.592C54.8658 294.224 54.4901 294.408 54.3961 294.408C53.5507 294.592 51.578 295.882 50.2628 294.408C50.0749 294.224 49.7931 293.948 49.3234 293.948C48.8537 293.948 48.6658 294.132 48.478 294.5C48.2901 294.869 48.2901 295.145 48.2901 296.066C48.2901 296.803 48.2901 297.632 48.1961 298.276C48.0083 299.842 47.7264 300.763 47.7264 301.684C47.7264 302.698 48.0083 303.342 48.384 303.619C48.6658 303.895 49.1355 304.079 50.1689 304.079C51.2022 304.079 51.8598 303.711 52.5173 303.066C52.987 302.605 53.3628 302.421 54.678 301.5C55.7113 300.855 57.3083 300.026 57.5901 299.75C57.778 299.566 58.0598 299.474 58.0598 298.921C58.0598 298.461 57.684 298.276 57.4022 298.184Z" fill="url(#paint4_linear_1_4066)"/>
<path d="M38.5204 298.461C37.581 296.987 37.487 296.711 36.8295 295.789C36.2658 294.868 35.0446 293.118 34.2931 293.118C33.7295 293.118 33.4476 293.395 33.0719 293.763C32.6961 294.132 32.3204 294.961 31.6628 295.421C31.0992 295.882 29.5022 295.789 29.1264 296.342C28.7507 296.895 29.5022 297.724 29.5022 299.105C29.5022 299.658 29.0325 300.026 28.9385 300.395C28.8446 300.855 28.7507 301.132 28.9385 301.5C29.3143 302.053 29.784 302.237 32.9779 302.882C34.6689 303.25 36.2658 304.171 37.2992 304.263C38.3325 304.355 40.1173 304.263 40.1173 301.776C40.2113 300.303 39.3658 299.934 38.5204 298.461Z" fill="#A692F1"/>
<path d="M38.5204 298.461C37.581 296.987 37.487 296.711 36.8295 295.789C36.2658 294.868 35.0446 293.118 34.2931 293.118C33.7295 293.118 33.4476 293.395 33.0719 293.763C32.6961 294.132 32.3204 294.961 31.6628 295.421C31.0992 295.882 29.5022 295.789 29.1264 296.342C28.7507 296.895 29.5022 297.724 29.5022 299.105C29.5022 299.658 29.0325 300.026 28.9385 300.395C28.8446 300.855 28.7507 301.132 28.9385 301.5C29.3143 302.053 29.784 302.237 32.9779 302.882C34.6689 303.25 36.2658 304.171 37.2992 304.263C38.3325 304.355 40.1173 304.263 40.1173 301.776C40.2113 300.303 39.3658 299.934 38.5204 298.461Z" fill="url(#paint5_linear_1_4066)"/>
<path d="M40.3048 281.79C39.7412 281.421 39.2715 281.053 39.2715 280.5C39.2715 279.947 39.6472 279.763 40.2109 279.303C40.3048 279.211 41.3382 278.29 42.3715 278.29C43.4048 278.29 44.626 278.934 45.0957 279.118C45.9412 279.303 46.7866 279.487 46.6927 280.132C46.5988 281.053 46.5048 281.237 45.5654 281.697C44.9078 281.882 43.6866 282.895 42.8412 282.895C42.4654 282.895 41.9018 282.895 41.526 282.803C41.2442 282.711 40.7745 282.25 40.3048 281.79Z" fill="#A692F1"/>
<path d="M40.3048 281.79C39.7412 281.421 39.2715 281.053 39.2715 280.5C39.2715 279.947 39.6472 279.763 40.2109 279.303C40.3048 279.211 41.3382 278.29 42.3715 278.29C43.4048 278.29 44.626 278.934 45.0957 279.118C45.9412 279.303 46.7866 279.487 46.6927 280.132C46.5988 281.053 46.5048 281.237 45.5654 281.697C44.9078 281.882 43.6866 282.895 42.8412 282.895C42.4654 282.895 41.9018 282.895 41.526 282.803C41.2442 282.711 40.7745 282.25 40.3048 281.79Z" fill="url(#paint6_linear_1_4066)"/>
<path d="M40.1173 281.053C40.3052 281.237 40.587 281.422 40.8688 281.514C41.0567 281.606 41.3385 281.698 41.3385 281.698C41.7143 281.698 41.9961 281.698 42.184 281.698C42.6536 281.698 43.3112 281.514 43.9688 281.145C44.6264 280.869 44.7203 280.685 45.19 280.5C45.6597 280.224 46.1294 279.948 45.9415 279.856C45.7536 279.764 45.5658 279.856 44.9082 280.224C44.3446 280.593 43.8749 280.777 43.3112 281.053C43.0294 281.145 42.6536 281.329 42.3718 281.329C42.09 281.329 41.8082 281.329 41.5264 281.329C41.2446 281.329 41.0567 281.237 40.7749 281.145C40.587 281.053 40.493 280.961 40.3991 280.961C40.2112 280.869 39.8355 280.5 39.6476 280.408C39.6476 280.408 39.4597 280.408 39.5536 280.5C39.8355 280.777 39.9294 280.869 40.1173 281.053Z" fill="#634703"/>
<path d="M42.9355 279.027C43.0294 279.211 43.2173 279.211 43.3112 279.303C43.4052 279.395 43.4991 279.395 43.4991 279.395C43.593 279.303 43.4991 279.119 43.4052 279.119C43.4052 278.934 42.9355 278.934 42.9355 279.027Z" fill="#634703"/>
<path d="M41.4316 279.211C41.4316 279.303 41.6195 279.395 41.6195 279.303C41.7135 279.211 41.8074 279.119 41.9013 279.119C42.0892 279.027 41.9953 278.935 41.7135 278.935C41.5256 279.027 41.5256 279.119 41.4316 279.211Z" fill="#634703"/>
<path d="M50.5456 295.513C50.5456 295.605 50.5456 295.697 50.5456 295.789C50.7334 296.158 51.2031 296.25 51.5789 296.25C52.1425 296.25 52.7062 295.882 52.988 295.513C52.988 295.421 53.0819 295.329 53.1759 295.237C53.3637 294.96 53.4577 294.776 53.5516 294.684C53.5516 294.684 53.4577 294.592 53.4577 294.5C53.3637 294.316 53.0819 294.132 52.7062 294.039C52.4243 293.947 51.9546 293.855 51.7668 293.855C50.9213 293.763 50.4516 294.039 50.1698 294.316C50.1698 294.316 50.2637 294.316 50.2637 294.408C50.4516 294.592 50.5456 294.776 50.5456 295.053C50.6395 295.237 50.5456 295.329 50.5456 295.513Z" fill="#A692F1"/>
<path d="M50.5456 295.513C50.5456 295.605 50.5456 295.697 50.5456 295.789C50.7334 296.158 51.2031 296.25 51.5789 296.25C52.1425 296.25 52.7062 295.882 52.988 295.513C52.988 295.421 53.0819 295.329 53.1759 295.237C53.3637 294.96 53.4577 294.776 53.5516 294.684C53.5516 294.684 53.4577 294.592 53.4577 294.5C53.3637 294.316 53.0819 294.132 52.7062 294.039C52.4243 293.947 51.9546 293.855 51.7668 293.855C50.9213 293.763 50.4516 294.039 50.1698 294.316C50.1698 294.316 50.2637 294.316 50.2637 294.408C50.4516 294.592 50.5456 294.776 50.5456 295.053C50.6395 295.237 50.5456 295.329 50.5456 295.513Z" fill="url(#paint7_linear_1_4066)"/>
</g>
</g>
<g clip-path="url(#clip7_1_4066)">
<rect y="31" width="88" height="88" rx="44" fill="white"/>
<rect x="0.5" y="31.5" width="87" height="87" rx="43.5" stroke="#EBDFEA"/>
<g clip-path="url(#clip8_1_4066)">
<path d="M32.3114 59.6816C32.3114 59.6816 40.3047 55.3638 47.1427 60.5658L43.3161 73.6228C43.3161 73.6228 39.0334 70.6938 35.8533 71.0094C32.6733 71.3249 28.4853 72.8373 28.4853 72.8373L32.3114 59.6816ZM27.8107 75.1381C27.8107 75.1381 32.1008 73.1568 35.663 73.4089C39.2247 73.6613 42.0686 75.565 42.682 76.0023L38.8157 89.1955C38.8157 89.1955 34.5181 86.4185 31.4653 86.6712C28.4122 86.9245 25.7656 87.3862 24.0039 88.292L27.8107 75.1381ZM44.684 77.2795C44.684 77.2795 48.7645 79.9142 51.4357 79.851C54.0674 79.7886 55.8881 79.5827 59.4586 78.193C59.4863 78.1821 59.559 78.1305 59.5348 78.1458C59.4586 78.193 55.709 91.2205 55.709 91.2205C55.709 91.2205 51.4996 93.1762 47.6827 92.9872C43.8669 92.7977 41.5751 90.6308 40.8765 90.3561L44.684 77.2795Z" fill="#A692F1"/>
<path d="M32.3114 59.6816C32.3114 59.6816 40.3047 55.3638 47.1427 60.5658L43.3161 73.6228C43.3161 73.6228 39.0334 70.6938 35.8533 71.0094C32.6733 71.3249 28.4853 72.8373 28.4853 72.8373L32.3114 59.6816ZM27.8107 75.1381C27.8107 75.1381 32.1008 73.1568 35.663 73.4089C39.2247 73.6613 42.0686 75.565 42.682 76.0023L38.8157 89.1955C38.8157 89.1955 34.5181 86.4185 31.4653 86.6712C28.4122 86.9245 25.7656 87.3862 24.0039 88.292L27.8107 75.1381ZM44.684 77.2795C44.684 77.2795 48.7645 79.9142 51.4357 79.851C54.0674 79.7886 55.8881 79.5827 59.4586 78.193C59.4863 78.1821 59.559 78.1305 59.5348 78.1458C59.4586 78.193 55.709 91.2205 55.709 91.2205C55.709 91.2205 51.4996 93.1762 47.6827 92.9872C43.8669 92.7977 41.5751 90.6308 40.8765 90.3561L44.684 77.2795Z" fill="url(#paint8_linear_1_4066)"/>
<path d="M49.1642 61.9434L45.3281 74.9251C45.3281 74.9251 48.4446 77.9565 52.8333 77.7036C57.2219 77.4512 59.607 76.0777 60.1872 75.8839L63.9955 62.7876C63.9955 62.7876 58.9392 64.8832 55.6317 64.5043C52.3245 64.1258 50.2645 62.7293 49.1642 61.9434Z" fill="#A692F1"/>
<path d="M49.1642 61.9434L45.3281 74.9251C45.3281 74.9251 48.4446 77.9565 52.8333 77.7036C57.2219 77.4512 59.607 76.0777 60.1872 75.8839L63.9955 62.7876C63.9955 62.7876 58.9392 64.8832 55.6317 64.5043C52.3245 64.1258 50.2645 62.7293 49.1642 61.9434Z" fill="url(#paint9_linear_1_4066)"/>
</g>
</g>
<g clip-path="url(#clip9_1_4066)">
<rect x="1212" y="26" width="88" height="88" rx="44" fill="white"/>
<rect x="1212.5" y="26.5" width="87" height="87" rx="43.5" stroke="#EBDFEA"/>
<path d="M1270.08 79.5068V79.2386C1270.08 77.307 1269.31 75.4551 1267.95 74.0892C1266.58 72.7233 1264.72 71.9549 1262.79 71.9526H1256.96V70.3642C1259.12 69.9988 1261.07 68.8347 1262.41 67.1026C1263.76 65.3705 1264.4 63.1967 1264.22 61.0121C1264.04 58.8275 1263.04 56.7915 1261.42 55.3075C1259.81 53.8236 1257.69 53 1255.5 53C1253.31 53 1251.19 53.8236 1249.58 55.3075C1247.96 56.7915 1246.96 58.8275 1246.78 61.0121C1246.6 63.1967 1247.24 65.3705 1248.59 67.1026C1249.93 68.8347 1251.88 69.9988 1254.04 70.3642V71.9526H1248.21C1246.28 71.9549 1244.42 72.7233 1243.05 74.0892C1241.69 75.4551 1240.92 77.307 1240.92 79.2386V79.5068C1239.94 79.8505 1239.12 80.5269 1238.6 81.4164C1238.08 82.3059 1237.89 83.3512 1238.06 84.3676C1238.24 85.384 1238.77 86.306 1239.56 86.9707C1240.34 87.6354 1241.34 88 1242.38 88C1243.41 88 1244.41 87.6354 1245.19 86.9707C1245.98 86.306 1246.51 85.384 1246.69 84.3676C1246.86 83.3512 1246.67 82.3059 1246.15 81.4164C1245.63 80.5269 1244.81 79.8505 1243.83 79.5068V79.2386C1243.83 78.0792 1244.29 76.9673 1245.11 76.1474C1245.94 75.3276 1247.05 74.867 1248.21 74.867H1254.04V79.5068C1253.07 79.8505 1252.25 80.5269 1251.73 81.4164C1251.2 82.3059 1251.01 83.3512 1251.19 84.3676C1251.36 85.384 1251.89 86.306 1252.68 86.9707C1253.47 87.6354 1254.47 88 1255.5 88C1256.53 88 1257.53 87.6354 1258.32 86.9707C1259.11 86.306 1259.64 85.384 1259.81 84.3676C1259.99 83.3512 1259.8 82.3059 1259.27 81.4164C1258.75 80.5269 1257.93 79.8505 1256.96 79.5068V74.867H1262.79C1263.95 74.867 1265.06 75.3276 1265.89 76.1474C1266.71 76.9673 1267.17 78.0792 1267.17 79.2386V79.5068C1266.19 79.8505 1265.37 80.5269 1264.85 81.4164C1264.33 82.3059 1264.14 83.3512 1264.31 84.3676C1264.49 85.384 1265.02 86.306 1265.81 86.9707C1266.59 87.6354 1267.59 88 1268.62 88C1269.66 88 1270.66 87.6354 1271.44 86.9707C1272.23 86.306 1272.76 85.384 1272.94 84.3676C1273.11 83.3512 1272.92 82.3059 1272.4 81.4164C1271.88 80.5269 1271.06 79.8505 1270.08 79.5068Z" fill="#A692F1"/>
<path d="M1270.08 79.5068V79.2386C1270.08 77.307 1269.31 75.4551 1267.95 74.0892C1266.58 72.7233 1264.72 71.9549 1262.79 71.9526H1256.96V70.3642C1259.12 69.9988 1261.07 68.8347 1262.41 67.1026C1263.76 65.3705 1264.4 63.1967 1264.22 61.0121C1264.04 58.8275 1263.04 56.7915 1261.42 55.3075C1259.81 53.8236 1257.69 53 1255.5 53C1253.31 53 1251.19 53.8236 1249.58 55.3075C1247.96 56.7915 1246.96 58.8275 1246.78 61.0121C1246.6 63.1967 1247.24 65.3705 1248.59 67.1026C1249.93 68.8347 1251.88 69.9988 1254.04 70.3642V71.9526H1248.21C1246.28 71.9549 1244.42 72.7233 1243.05 74.0892C1241.69 75.4551 1240.92 77.307 1240.92 79.2386V79.5068C1239.94 79.8505 1239.12 80.5269 1238.6 81.4164C1238.08 82.3059 1237.89 83.3512 1238.06 84.3676C1238.24 85.384 1238.77 86.306 1239.56 86.9707C1240.34 87.6354 1241.34 88 1242.38 88C1243.41 88 1244.41 87.6354 1245.19 86.9707C1245.98 86.306 1246.51 85.384 1246.69 84.3676C1246.86 83.3512 1246.67 82.3059 1246.15 81.4164C1245.63 80.5269 1244.81 79.8505 1243.83 79.5068V79.2386C1243.83 78.0792 1244.29 76.9673 1245.11 76.1474C1245.94 75.3276 1247.05 74.867 1248.21 74.867H1254.04V79.5068C1253.07 79.8505 1252.25 80.5269 1251.73 81.4164C1251.2 82.3059 1251.01 83.3512 1251.19 84.3676C1251.36 85.384 1251.89 86.306 1252.68 86.9707C1253.47 87.6354 1254.47 88 1255.5 88C1256.53 88 1257.53 87.6354 1258.32 86.9707C1259.11 86.306 1259.64 85.384 1259.81 84.3676C1259.99 83.3512 1259.8 82.3059 1259.27 81.4164C1258.75 80.5269 1257.93 79.8505 1256.96 79.5068V74.867H1262.79C1263.95 74.867 1265.06 75.3276 1265.89 76.1474C1266.71 76.9673 1267.17 78.0792 1267.17 79.2386V79.5068C1266.19 79.8505 1265.37 80.5269 1264.85 81.4164C1264.33 82.3059 1264.14 83.3512 1264.31 84.3676C1264.49 85.384 1265.02 86.306 1265.81 86.9707C1266.59 87.6354 1267.59 88 1268.62 88C1269.66 88 1270.66 87.6354 1271.44 86.9707C1272.23 86.306 1272.76 85.384 1272.94 84.3676C1273.11 83.3512 1272.92 82.3059 1272.4 81.4164C1271.88 80.5269 1271.06 79.8505 1270.08 79.5068Z" fill="url(#paint10_linear_1_4066)"/>
</g>
<g clip-path="url(#clip10_1_4066)">
<rect x="1212" y="243" width="88" height="88" rx="44" fill="white"/>
<rect x="1212.5" y="243.5" width="87" height="87" rx="43.5" stroke="#EBDFEA"/>
<g clip-path="url(#clip11_1_4066)">
<path d="M1269.08 281.931C1268.87 282.089 1265.22 284.109 1265.22 288.599C1265.22 293.793 1269.86 295.63 1270 295.676C1269.98 295.788 1269.27 298.193 1267.56 300.642C1266.03 302.799 1264.44 304.951 1262.02 304.951C1259.59 304.951 1258.97 303.569 1256.17 303.569C1253.45 303.569 1252.48 304.997 1250.26 304.997C1248.05 304.997 1246.5 303.001 1244.72 300.552C1242.66 297.675 1241 293.205 1241 288.963C1241 282.159 1245.5 278.55 1249.94 278.55C1252.29 278.55 1254.25 280.07 1255.73 280.07C1257.14 280.07 1259.33 278.46 1262.01 278.46C1263.03 278.46 1266.68 278.55 1269.08 281.931ZM1260.74 275.579C1261.85 274.287 1262.63 272.496 1262.63 270.704C1262.63 270.455 1262.61 270.203 1262.56 270C1260.76 270.067 1258.62 271.18 1257.32 272.653C1256.31 273.787 1255.36 275.579 1255.36 277.396C1255.36 277.668 1255.41 277.941 1255.43 278.029C1255.54 278.05 1255.73 278.075 1255.91 278.075C1257.53 278.075 1259.56 277.01 1260.74 275.579Z" fill="#A692F1"/>
<path d="M1269.08 281.931C1268.87 282.089 1265.22 284.109 1265.22 288.599C1265.22 293.793 1269.86 295.63 1270 295.676C1269.98 295.788 1269.27 298.193 1267.56 300.642C1266.03 302.799 1264.44 304.951 1262.02 304.951C1259.59 304.951 1258.97 303.569 1256.17 303.569C1253.45 303.569 1252.48 304.997 1250.26 304.997C1248.05 304.997 1246.5 303.001 1244.72 300.552C1242.66 297.675 1241 293.205 1241 288.963C1241 282.159 1245.5 278.55 1249.94 278.55C1252.29 278.55 1254.25 280.07 1255.73 280.07C1257.14 280.07 1259.33 278.46 1262.01 278.46C1263.03 278.46 1266.68 278.55 1269.08 281.931ZM1260.74 275.579C1261.85 274.287 1262.63 272.496 1262.63 270.704C1262.63 270.455 1262.61 270.203 1262.56 270C1260.76 270.067 1258.62 271.18 1257.32 272.653C1256.31 273.787 1255.36 275.579 1255.36 277.396C1255.36 277.668 1255.41 277.941 1255.43 278.029C1255.54 278.05 1255.73 278.075 1255.91 278.075C1257.53 278.075 1259.56 277.01 1260.74 275.579Z" fill="url(#paint11_linear_1_4066)"/>
</g>
</g>
<g clip-path="url(#clip12_1_4066)">
<rect x="338" y="243" width="88" height="88" rx="44" fill="white"/>
<rect x="338.5" y="243.5" width="87" height="87" rx="43.5" stroke="#EBDFEA"/>
<g clip-path="url(#clip13_1_4066)">
<path d="M372.551 296.482C372.551 297.395 373.297 298.14 374.215 298.14H376.117V302.838C376.117 304.028 377.074 305 378.25 305C379.43 305 380.383 304.032 380.383 302.838V298.136H383.703V302.834C383.703 304.024 384.66 304.996 385.836 304.996C387.016 304.996 387.969 304.028 387.969 302.834V298.136H389.871C390.789 298.136 391.535 297.391 391.535 296.478V281.058H372.551V296.482ZM386.5 273.067L388.254 270.531C388.355 270.382 388.332 270.183 388.195 270.086C388.059 269.992 387.863 270.039 387.762 270.187L385.941 272.825C384.742 272.353 383.406 272.091 382.004 272.091C380.602 272.091 379.266 272.353 378.066 272.825L376.246 270.191C376.145 270.043 375.949 269.992 375.813 270.09C375.676 270.183 375.652 270.378 375.754 270.534L377.508 273.071C374.719 274.366 372.766 276.82 372.516 279.688H391.5C391.242 276.817 389.285 274.362 386.5 273.067ZM377.996 277.066C377.788 277.066 377.585 277.005 377.412 276.889C377.24 276.774 377.105 276.61 377.025 276.418C376.946 276.226 376.925 276.015 376.966 275.812C377.006 275.608 377.106 275.421 377.253 275.274C377.4 275.128 377.587 275.028 377.791 274.987C377.995 274.947 378.206 274.967 378.398 275.047C378.59 275.126 378.754 275.261 378.87 275.433C378.985 275.606 379.047 275.809 379.047 276.017C379.046 276.295 378.935 276.561 378.738 276.758C378.541 276.955 378.275 277.066 377.996 277.066ZM386.137 277.066C385.929 277.066 385.726 277.005 385.553 276.889C385.38 276.774 385.245 276.61 385.166 276.418C385.086 276.226 385.066 276.015 385.106 275.812C385.147 275.608 385.247 275.421 385.394 275.274C385.541 275.128 385.728 275.028 385.932 274.987C386.136 274.947 386.347 274.967 386.539 275.047C386.731 275.126 386.895 275.261 387.01 275.433C387.126 275.606 387.188 275.809 387.188 276.017C387.187 276.295 387.076 276.561 386.879 276.758C386.682 276.955 386.415 277.066 386.137 277.066ZM394.863 280.995C393.684 280.995 392.73 281.963 392.73 283.157V291.601C392.73 292.791 393.688 293.762 394.863 293.762C396.043 293.762 396.996 292.795 396.996 291.601V283.153C397 281.959 396.047 280.995 394.863 280.995ZM369.137 280.995C367.957 280.995 367.004 281.963 367.004 283.157V291.601C367.004 292.791 367.961 293.762 369.137 293.762C370.316 293.762 371.27 292.795 371.27 291.601V283.153C371.27 281.959 370.312 280.995 369.137 280.995Z" fill="#A692F1"/>
<path d="M372.551 296.482C372.551 297.395 373.297 298.14 374.215 298.14H376.117V302.838C376.117 304.028 377.074 305 378.25 305C379.43 305 380.383 304.032 380.383 302.838V298.136H383.703V302.834C383.703 304.024 384.66 304.996 385.836 304.996C387.016 304.996 387.969 304.028 387.969 302.834V298.136H389.871C390.789 298.136 391.535 297.391 391.535 296.478V281.058H372.551V296.482ZM386.5 273.067L388.254 270.531C388.355 270.382 388.332 270.183 388.195 270.086C388.059 269.992 387.863 270.039 387.762 270.187L385.941 272.825C384.742 272.353 383.406 272.091 382.004 272.091C380.602 272.091 379.266 272.353 378.066 272.825L376.246 270.191C376.145 270.043 375.949 269.992 375.813 270.09C375.676 270.183 375.652 270.378 375.754 270.534L377.508 273.071C374.719 274.366 372.766 276.82 372.516 279.688H391.5C391.242 276.817 389.285 274.362 386.5 273.067ZM377.996 277.066C377.788 277.066 377.585 277.005 377.412 276.889C377.24 276.774 377.105 276.61 377.025 276.418C376.946 276.226 376.925 276.015 376.966 275.812C377.006 275.608 377.106 275.421 377.253 275.274C377.4 275.128 377.587 275.028 377.791 274.987C377.995 274.947 378.206 274.967 378.398 275.047C378.59 275.126 378.754 275.261 378.87 275.433C378.985 275.606 379.047 275.809 379.047 276.017C379.046 276.295 378.935 276.561 378.738 276.758C378.541 276.955 378.275 277.066 377.996 277.066ZM386.137 277.066C385.929 277.066 385.726 277.005 385.553 276.889C385.38 276.774 385.245 276.61 385.166 276.418C385.086 276.226 385.066 276.015 385.106 275.812C385.147 275.608 385.247 275.421 385.394 275.274C385.541 275.128 385.728 275.028 385.932 274.987C386.136 274.947 386.347 274.967 386.539 275.047C386.731 275.126 386.895 275.261 387.01 275.433C387.126 275.606 387.188 275.809 387.188 276.017C387.187 276.295 387.076 276.561 386.879 276.758C386.682 276.955 386.415 277.066 386.137 277.066ZM394.863 280.995C393.684 280.995 392.73 281.963 392.73 283.157V291.601C392.73 292.791 393.688 293.762 394.863 293.762C396.043 293.762 396.996 292.795 396.996 291.601V283.153C397 281.959 396.047 280.995 394.863 280.995ZM369.137 280.995C367.957 280.995 367.004 281.963 367.004 283.157V291.601C367.004 292.791 367.961 293.762 369.137 293.762C370.316 293.762 371.27 292.795 371.27 291.601V283.153C371.27 281.959 370.312 280.995 369.137 280.995Z" fill="url(#paint12_linear_1_4066)"/>
</g>
</g>
<g clip-path="url(#clip14_1_4066)">
<rect x="338" y="31" width="88" height="88" rx="44" fill="white"/>
<rect x="338.5" y="31.5" width="87" height="87" rx="43.5" stroke="#EBDFEA"/>
<g clip-path="url(#clip15_1_4066)">
<path d="M395.109 69.9315C394.91 70.089 391.387 72.1085 391.387 76.599C391.387 81.793 395.869 83.6305 396.003 83.676C395.983 83.788 395.291 86.1925 393.64 88.6425C392.168 90.7985 390.63 92.951 388.291 92.951C385.952 92.951 385.35 91.5685 382.65 91.5685C380.019 91.5685 379.083 92.9965 376.943 92.9965C374.804 92.9965 373.311 91.0015 371.595 88.5515C369.606 85.6745 368 81.205 368 76.963C368 70.159 372.348 66.5505 376.627 66.5505C378.901 66.5505 380.796 68.0695 382.224 68.0695C383.582 68.0695 385.701 66.4595 388.288 66.4595C389.268 66.4595 392.791 66.5505 395.109 69.9315ZM387.06 63.579C388.13 62.2875 388.886 60.4955 388.886 58.7035C388.886 58.455 388.866 58.203 388.821 58C387.081 58.0665 385.01 59.1795 383.761 60.653C382.781 61.787 381.866 63.579 381.866 65.3955C381.866 65.6685 381.911 65.9415 381.931 66.029C382.041 66.05 382.22 66.0745 382.399 66.0745C383.961 66.0745 385.925 65.0105 387.06 63.579Z" fill="#A692F1"/>
<path d="M395.109 69.9315C394.91 70.089 391.387 72.1085 391.387 76.599C391.387 81.793 395.869 83.6305 396.003 83.676C395.983 83.788 395.291 86.1925 393.64 88.6425C392.168 90.7985 390.63 92.951 388.291 92.951C385.952 92.951 385.35 91.5685 382.65 91.5685C380.019 91.5685 379.083 92.9965 376.943 92.9965C374.804 92.9965 373.311 91.0015 371.595 88.5515C369.606 85.6745 368 81.205 368 76.963C368 70.159 372.348 66.5505 376.627 66.5505C378.901 66.5505 380.796 68.0695 382.224 68.0695C383.582 68.0695 385.701 66.4595 388.288 66.4595C389.268 66.4595 392.791 66.5505 395.109 69.9315ZM387.06 63.579C388.13 62.2875 388.886 60.4955 388.886 58.7035C388.886 58.455 388.866 58.203 388.821 58C387.081 58.0665 385.01 59.1795 383.761 60.653C382.781 61.787 381.866 63.579 381.866 65.3955C381.866 65.6685 381.911 65.9415 381.931 66.029C382.041 66.05 382.22 66.0745 382.399 66.0745C383.961 66.0745 385.925 65.0105 387.06 63.579Z" fill="url(#paint13_linear_1_4066)"/>
</g>
</g>
<defs>
<filter id="filter0_dd_1_4066" x="456" y="0" width="388" height="388" filterUnits="userSpaceOnUse" color-interpolation-filters="sRGB">
<feFlood flood-opacity="0" result="BackgroundImageFix"/>
<feColorMatrix in="SourceAlpha" type="matrix" values="0 0 0 0 0 0 0 0 0 0 0 0 0 0 0 0 0 0 127 0" result="hardAlpha"/>
<feOffset dy="16"/>
<feGaussianBlur stdDeviation="66"/>
<feComposite in2="hardAlpha" operator="out"/>
<feColorMatrix type="matrix" values="0 0 0 0 0.0235294 0 0 0 0 0.0431373 0 0 0 0 0.0745098 0 0 0 0.1 0"/>
<feBlend mode="normal" in2="BackgroundImageFix" result="effect1_dropShadow_1_4066"/>
<feColorMatrix in="SourceAlpha" type="matrix" values="0 0 0 0 0 0 0 0 0 0 0 0 0 0 0 0 0 0 127 0" result="hardAlpha"/>
<feMorphology radius="8" operator="dilate" in="SourceAlpha" result="effect2_dropShadow_1_4066"/>
<feOffset/>
<feComposite in2="hardAlpha" operator="out"/>
<feColorMatrix type="matrix" values="0 0 0 0 1 0 0 0 0 1 0 0 0 0 1 0 0 0 1 0"/>
<feBlend mode="normal" in2="effect1_dropShadow_1_4066" result="effect2_dropShadow_1_4066"/>
<feBlend mode="normal" in="SourceGraphic" in2="effect2_dropShadow_1_4066" result="shape"/>
</filter>
<linearGradient id="paint0_linear_1_4066" x1="650" y1="154" x2="650" y2="202" gradientUnits="userSpaceOnUse">
<stop stop-color="#9A85E9"/>
<stop offset="1" stop-color="#6E51E0"/>
</linearGradient>
<linearGradient id="paint1_linear_1_4066" x1="908.927" y1="65.4212" x2="921.436" y2="88.4296" gradientUnits="userSpaceOnUse">
<stop stop-color="#A692F1"/>
<stop offset="0.5" stop-color="#F0F3FD" stop-opacity="0.2"/>
<stop offset="1" stop-color="#A692F1"/>
</linearGradient>
<linearGradient id="paint2_linear_1_4066" x1="906.733" y1="293.04" x2="918.924" y2="266.023" gradientUnits="userSpaceOnUse">
<stop stop-color="#A692F1"/>
<stop offset="0.5" stop-color="white" stop-opacity="0.2"/>
<stop offset="1" stop-color="#A692F1"/>
</linearGradient>
<linearGradient id="paint3_linear_1_4066" x1="39.0579" y1="281.602" x2="53.5106" y2="298.478" gradientUnits="userSpaceOnUse">
<stop stop-color="#A692F1"/>
<stop offset="0.5" stop-color="white" stop-opacity="0.2"/>
<stop offset="1" stop-color="#A692F1"/>
</linearGradient>
<linearGradient id="paint4_linear_1_4066" x1="50.3622" y1="297.409" x2="54.4526" y2="304.444" gradientUnits="userSpaceOnUse">
<stop stop-color="#A692F1"/>
<stop offset="0.5" stop-color="white" stop-opacity="0.2"/>
<stop offset="1" stop-color="#A692F1"/>
</linearGradient>
<linearGradient id="paint5_linear_1_4066" x1="31.711" y1="296.934" x2="36.2378" y2="304.654" gradientUnits="userSpaceOnUse">
<stop stop-color="#A692F1"/>
<stop offset="0.5" stop-color="white" stop-opacity="0.2"/>
<stop offset="1" stop-color="#A692F1"/>
</linearGradient>
<linearGradient id="paint6_linear_1_4066" x1="41.1662" y1="279.863" x2="42.5521" y2="283.632" gradientUnits="userSpaceOnUse">
<stop stop-color="#A692F1"/>
<stop offset="0.5" stop-color="white" stop-opacity="0.2"/>
<stop offset="1" stop-color="#A692F1"/>
</linearGradient>
<linearGradient id="paint7_linear_1_4066" x1="51.0324" y1="294.662" x2="51.8369" y2="296.563" gradientUnits="userSpaceOnUse">
<stop stop-color="#A692F1"/>
<stop offset="0.5" stop-color="white" stop-opacity="0.2"/>
<stop offset="1" stop-color="#A692F1"/>
</linearGradient>
<linearGradient id="paint8_linear_1_4066" x1="33.068" y1="69.9596" x2="47.2303" y2="94.2053" gradientUnits="userSpaceOnUse">
<stop stop-color="#A692F1"/>
<stop offset="0.5" stop-color="white" stop-opacity="0.2"/>
<stop offset="1" stop-color="#A692F1"/>
</linearGradient>
<linearGradient id="paint9_linear_1_4066" x1="50.0896" y1="67.3338" x2="55.9605" y2="79.048" gradientUnits="userSpaceOnUse">
<stop stop-color="#A692F1"/>
<stop offset="0.5" stop-color="white" stop-opacity="0.2"/>
<stop offset="1" stop-color="#A692F1"/>
</linearGradient>
<linearGradient id="paint10_linear_1_4066" x1="1246.93" y1="64.9595" x2="1261.19" y2="89.0165" gradientUnits="userSpaceOnUse">
<stop stop-color="#A692F1"/>
<stop offset="0.5" stop-color="white" stop-opacity="0.2"/>
<stop offset="1" stop-color="#A692F1"/>
</linearGradient>
<linearGradient id="paint11_linear_1_4066" x1="1248.4" y1="281.958" x2="1263.79" y2="303.462" gradientUnits="userSpaceOnUse">
<stop stop-color="#A692F1"/>
<stop offset="0.5" stop-color="white" stop-opacity="0.2"/>
<stop offset="1" stop-color="#A692F1"/>
</linearGradient>
<linearGradient id="paint12_linear_1_4066" x1="374.654" y1="281.984" x2="389.849" y2="303.963" gradientUnits="userSpaceOnUse">
<stop stop-color="#A692F1"/>
<stop offset="0.5" stop-color="white" stop-opacity="0.2"/>
<stop offset="1" stop-color="#A692F1"/>
</linearGradient>
<linearGradient id="paint13_linear_1_4066" x1="375.143" y1="69.9583" x2="390.697" y2="90.945" gradientUnits="userSpaceOnUse">
<stop stop-color="#A692F1"/>
<stop offset="0.5" stop-color="#F0F3FD" stop-opacity="0.2"/>
<stop offset="1" stop-color="#A692F1"/>
</linearGradient>
<clipPath id="clip0_1_4066">
<rect x="588" y="116" width="124" height="124" rx="62" fill="white"/>
</clipPath>
<clipPath id="clip1_1_4066">
<rect width="48" height="48" fill="white" transform="translate(626 154)"/>
</clipPath>
<clipPath id="clip2_1_4066">
<rect width="48" height="48" fill="white" transform="translate(626 154)"/>
</clipPath>
<clipPath id="clip3_1_4066">
<rect x="874" y="26" width="88" height="88" rx="44" fill="white"/>
</clipPath>
<clipPath id="clip4_1_4066">
<rect x="874" y="243" width="88" height="88" rx="44" fill="white"/>
</clipPath>
<clipPath id="clip5_1_4066">
<rect y="243" width="88" height="88" rx="44" fill="white"/>
</clipPath>
<clipPath id="clip6_1_4066">
<rect width="31" height="35" fill="white" transform="translate(28 270)"/>
</clipPath>
<clipPath id="clip7_1_4066">
<rect y="31" width="88" height="88" rx="44" fill="white"/>
</clipPath>
<clipPath id="clip8_1_4066">
<rect width="40" height="35" fill="white" transform="translate(24 58)"/>
</clipPath>
<clipPath id="clip9_1_4066">
<rect x="1212" y="26" width="88" height="88" rx="44" fill="white"/>
</clipPath>
<clipPath id="clip10_1_4066">
<rect x="1212" y="243" width="88" height="88" rx="44" fill="white"/>
</clipPath>
<clipPath id="clip11_1_4066">
<rect width="29" height="35" fill="white" transform="translate(1241 270)"/>
</clipPath>
<clipPath id="clip12_1_4066">
<rect x="338" y="243" width="88" height="88" rx="44" fill="white"/>
</clipPath>
<clipPath id="clip13_1_4066">
<rect width="30" height="35" fill="white" transform="translate(367 270)"/>
</clipPath>
<clipPath id="clip14_1_4066">
<rect x="338" y="31" width="88" height="88" rx="44" fill="white"/>
</clipPath>
<clipPath id="clip15_1_4066">
<rect width="28" height="35" fill="white" transform="translate(368 58)"/>
</clipPath>
</defs>
</svg>
